<svg id="syringe-solid" xmlns="http://www.w3.org/2000/svg" width="45.813" height="45.826" viewBox="0 0 45.813 45.826">
  <path id="syringe-solid-2" data-name="syringe-solid" d="M45.117,6.356,39.389.628a2.148,2.148,0,0,0-3.038,3.038l1.427,1.345-3.41,3.406L29.443,3.492a2.148,2.148,0,0,0-3.038,0,2.12,2.12,0,0,0-.183,2.762L39.567,19.6a2.119,2.119,0,0,0,1.246.448,2.148,2.148,0,0,0,1.519-3.667L37.4,11.455l3.41-3.406,1.345,1.345a2.148,2.148,0,0,0,3.038,0A2.089,2.089,0,0,0,45.117,6.356Zm-26.43,7.435,5.241,5.241a1.431,1.431,0,0,1,0,2.025,1.447,1.447,0,0,1-1.017.422,1.431,1.431,0,0,1-1.011-.421l-5.245-5.236-3.7,3.7L18.2,24.761a1.431,1.431,0,0,1,0,2.025,1.447,1.447,0,0,1-1.017.422,1.431,1.431,0,0,1-1.011-.421l-5.245-5.236L7.405,25.069a5.731,5.731,0,0,0-1.678,4.054V37.06l-5.1,5.1A2.147,2.147,0,0,0,3.666,45.2l5.1-5.1H16.7a5.73,5.73,0,0,0,4.051-1.678L37.544,21.627,24.2,8.282Z" transform="translate(0.001 0.001)" fill="#7400b9"/>
</svg>
