<svg xmlns="http://www.w3.org/2000/svg" width="150" height="150.04" viewBox="0 0 150 150.04">
  <path id="syringe-solid" d="M147.724,20.814,128.969,2.059a7.033,7.033,0,1,0-9.946,9.946l4.671,4.4L112.529,27.563,96.4,11.437a7.031,7.031,0,0,0-9.946,0,6.941,6.941,0,0,0-.6,9.043L129.55,64.173a6.939,6.939,0,0,0,4.078,1.468A7.033,7.033,0,0,0,138.6,53.635L122.463,37.509l11.165-11.153,4.4,4.4a7.032,7.032,0,0,0,9.946,0A6.839,6.839,0,0,0,147.724,20.814ZM61.187,45.158,78.348,62.318a4.685,4.685,0,0,1,0,6.629,4.736,4.736,0,0,1-3.329,1.383,4.684,4.684,0,0,1-3.311-1.377L54.535,51.81l-12.1,12.1L59.593,81.073a4.685,4.685,0,0,1,0,6.629,4.736,4.736,0,0,1-3.329,1.383,4.684,4.684,0,0,1-3.311-1.377L35.78,70.565,24.249,82.082a18.763,18.763,0,0,0-5.495,13.275v25.987L2.059,138.039a7.031,7.031,0,0,0,9.946,9.94L28.7,131.284H54.69a18.761,18.761,0,0,0,13.263-5.495l54.976-54.976L79.236,27.121Z" transform="translate(0.001 0.001)" fill="#fff"/>
</svg>
