<svg xmlns="http://www.w3.org/2000/svg" width="190" height="168.889" viewBox="0 0 190 168.889">
  <path id="Icon_awesome-cloud-sun-rain" data-name="Icon awesome-cloud-sun-rain" d="M168.394,74.384A26.378,26.378,0,0,0,142.5,52.778a26.053,26.053,0,0,0-11.314,2.639,31.607,31.607,0,0,0-57.3,18.472c0,.165.066.363.066.528a26.385,26.385,0,0,0,5.212,52.25h84.444a26.357,26.357,0,0,0,4.783-52.283ZM40.936,85.731A31.589,31.589,0,0,1,82.729,38.495a41.933,41.933,0,0,1,22.826-6.828c.231,0,.429.066.66.066l2.936-8.807a4.284,4.284,0,0,0-5.443-5.41L78.87,25.8,67.16,2.375a4.3,4.3,0,0,0-7.686,0L47.764,25.8l-24.839-8.28a4.284,4.284,0,0,0-5.41,5.443L25.8,47.8,2.375,59.507a4.3,4.3,0,0,0,0,7.686L25.8,78.9l-8.28,24.839a4.309,4.309,0,0,0,5.443,5.443l19.528-6.5c-.066-.792-.231-1.55-.231-2.375A36.456,36.456,0,0,1,44.3,88.469a30.42,30.42,0,0,1-3.365-2.738ZM63.96,66.6A42.064,42.064,0,0,1,74.483,45.488a20.823,20.823,0,0,0-11.149-3.266A21.131,21.131,0,0,0,42.222,63.333a20.913,20.913,0,0,0,6.96,15.536A36.99,36.99,0,0,1,63.96,66.6Zm109.052,71.316a5.265,5.265,0,0,0-7.191,1.979l-12.073,21.111a5.258,5.258,0,0,0,1.979,7.191,5.263,5.263,0,0,0,7.191-1.979l12.073-21.111a5.286,5.286,0,0,0-1.979-7.191Zm-31.667,0a5.265,5.265,0,0,0-7.191,1.979l-12.073,21.111a5.258,5.258,0,0,0,1.979,7.191,5.263,5.263,0,0,0,7.191-1.979l12.073-21.111a5.286,5.286,0,0,0-1.979-7.191Zm-31.667,0a5.266,5.266,0,0,0-7.191,1.979L90.415,161.005a5.258,5.258,0,0,0,1.979,7.191,5.263,5.263,0,0,0,7.191-1.979l12.073-21.111a5.286,5.286,0,0,0-1.979-7.191Zm-31.667,0a5.265,5.265,0,0,0-7.191,1.979L58.748,161.005a5.258,5.258,0,0,0,1.979,7.191,5.263,5.263,0,0,0,7.191-1.979l12.073-21.111a5.286,5.286,0,0,0-1.979-7.191Z" fill="#fff"/>
</svg>
