<?xml version="1.0" encoding="UTF-8"?><svg id="Capa_2" xmlns="http://www.w3.org/2000/svg" xmlns:xlink="http://www.w3.org/1999/xlink" viewBox="0 0 608.97 611.2"><defs><linearGradient id="Degradado_sin_nombre_239" x1="408.75" y1="659.38" x2="52.39" y2="42.13" gradientUnits="userSpaceOnUse"><stop offset=".29" stop-color="#0ba1d5"/><stop offset=".37" stop-color="#2badda"/><stop offset=".47" stop-color="#48b8df"/><stop offset=".56" stop-color="#5dc0e3"/><stop offset=".65" stop-color="#69c5e5"/><stop offset=".74" stop-color="#6ec7e6"/></linearGradient></defs><g id="OBJECTS"><path d="M576.26,595.18c32.33,14.13,42.58-27.71,22.21-81.96-28.75-76.56-124.85-76.86-174.64-95.74-22.21-8.43-87.16-21.13-137.87-52.85-37.27-23.32-61.02-67.87-69.65-92.48-18.85-53.74,17.28-119.51,33.96-158.3,11.77-27.37,21.75-34.62,24.77-57.57,1.11-8.42,3.93-29.91-5.62-42.51-20.1-26.51-91.74-9.32-124.85,6.64C8.15,86.16-67.38,417.11,81.5,548.91c70.1,62.06,169.93,62.23,207.32,62.3,39.68,.07,228.61-41.74,287.44-16.03Z" style="fill:url(#Degradado_sin_nombre_239);"/></g></svg>