<svg id="Group_186" data-name="Group 186" xmlns="http://www.w3.org/2000/svg" xmlns:xlink="http://www.w3.org/1999/xlink" width="601.548" height="367.624" viewBox="0 0 601.548 367.624">
  <defs>
    <clipPath id="clip-path">
      <rect id="Rectangle_112" data-name="Rectangle 112" width="601.548" height="367.624" fill="none"/>
    </clipPath>
    <clipPath id="clip-path-6">
      <rect id="Rectangle_110" data-name="Rectangle 110" width="77.962" height="75.964" transform="translate(193.547 226.167)" fill="none"/>
    </clipPath>
  </defs>
  <g id="Group_185" data-name="Group 185" clip-path="url(#clip-path)">
    <rect id="Rectangle_104" data-name="Rectangle 104" width="134.99" height="198.768" transform="translate(21.341 123.983) rotate(-33.777)" fill="#f5f5f5"/>
    <path id="Path_121" data-name="Path 121" d="M186.086,206.318l-1.273,7.881-55.779-8.036,1.274-7.881Z" fill="#e0e0e0"/>
    <path id="Path_122" data-name="Path 122" d="M158,178.2l8,1.153-8.874,54.918-8-1.153Z" fill="#e0e0e0"/>
    <g id="Group_175" data-name="Group 175">
      <g id="Group_174" data-name="Group 174" clip-path="url(#clip-path)">
        <path id="Path_123" data-name="Path 123" d="M106.618,108.4c.08.12-11.165,7.781-25.112,17.11s-25.324,16.8-25.4,16.678,11.162-7.779,25.114-17.111,25.322-16.8,25.4-16.677" fill="#e0e0e0"/>
        <path id="Path_124" data-name="Path 124" d="M147.882,98.045c.08.12-18.619,12.767-41.759,28.244S64.15,154.223,64.07,154.1s18.615-12.764,41.763-28.247S147.8,97.925,147.882,98.045" fill="#e0e0e0"/>
        <path id="Path_125" data-name="Path 125" d="M156.153,110.411c.08.12-18.619,12.767-41.759,28.244s-41.973,27.934-42.053,27.814,18.615-12.763,41.763-28.247,41.969-27.93,42.049-27.811" fill="#e0e0e0"/>
        <path id="Path_126" data-name="Path 126" d="M164.425,122.778c.08.12-18.619,12.767-41.759,28.244s-41.973,27.934-42.053,27.814,18.615-12.764,41.763-28.247,41.969-27.931,42.049-27.811" fill="#e0e0e0"/>
        <path id="Path_127" data-name="Path 127" d="M172.7,135.144c.08.12-18.619,12.766-41.759,28.244S88.964,191.322,88.884,191.2s18.615-12.764,41.763-28.247,41.969-27.931,42.049-27.811" fill="#e0e0e0"/>
        <rect id="Rectangle_105" data-name="Rectangle 105" width="113.369" height="166.932" transform="translate(414.507 222.691) rotate(-33.777)" fill="#f5f5f5"/>
        <path id="Path_128" data-name="Path 128" d="M552.865,291.838l-1.069,6.618-46.845-6.748,1.07-6.618Z" fill="#e0e0e0"/>
        <path id="Path_129" data-name="Path 129" d="M529.274,268.228,536,269.2l-7.453,46.122-6.722-.968Z" fill="#e0e0e0"/>
        <path id="Path_130" data-name="Path 130" d="M486.126,209.606c.08.12-9.353,6.569-21.067,14.4S443.781,238.1,443.7,237.982s9.351-6.568,21.069-14.4,21.276-14.09,21.356-13.971" fill="#e0e0e0"/>
        <path id="Path_131" data-name="Path 131" d="M520.781,200.907c.08.12-15.613,10.756-35.048,23.755s-35.26,23.444-35.34,23.324,15.61-10.754,35.051-23.757,35.257-23.442,35.337-23.322" fill="#e0e0e0"/>
        <path id="Path_132" data-name="Path 132" d="M527.727,211.293c.08.12-15.613,10.757-35.047,23.755s-35.261,23.444-35.341,23.324,15.61-10.754,35.051-23.757,35.257-23.441,35.337-23.322" fill="#e0e0e0"/>
        <path id="Path_133" data-name="Path 133" d="M534.674,221.678c.08.121-15.613,10.757-35.047,23.756s-35.261,23.444-35.341,23.323S479.9,258,499.337,245s35.257-23.442,35.337-23.323" fill="#e0e0e0"/>
        <path id="Path_134" data-name="Path 134" d="M541.62,232.064c.08.12-15.613,10.756-35.047,23.755s-35.261,23.444-35.341,23.324,15.61-10.754,35.051-23.757,35.257-23.442,35.337-23.322" fill="#e0e0e0"/>
        <rect id="Rectangle_106" data-name="Rectangle 106" width="171.689" height="116.599" transform="translate(175.872 151.397) rotate(-61.862)" fill="#f5f5f5"/>
        <path id="Path_135" data-name="Path 135" d="M261.089,159.026l-6.523,2.234-16.558-45.774,6.523-2.234Z" fill="#e0e0e0"/>
        <path id="Path_136" data-name="Path 136" d="M271.09,126.188l2.376,6.568-45.459,15.569-2.376-6.568Z" fill="#e0e0e0"/>
        <path id="Path_137" data-name="Path 137" d="M303.391,58.651c-.081.151-10.509-5.269-23.29-12.1s-23.081-12.5-23-12.652S267.608,39.164,280.393,46s23.079,12.5,23,12.65" fill="#e0e0e0"/>
        <path id="Path_138" data-name="Path 138" d="M328.064,85.885c-.081.151-17.34-8.923-38.544-20.264s-38.337-20.66-38.257-20.81,17.336,8.921,38.548,20.265,38.333,20.659,38.253,20.809" fill="#e0e0e0"/>
        <path id="Path_139" data-name="Path 139" d="M322,97.217c-.081.151-17.34-8.923-38.544-20.263S245.122,56.293,245.2,56.143s17.336,8.921,38.548,20.265S322.083,97.067,322,97.217" fill="#e0e0e0"/>
        <path id="Path_140" data-name="Path 140" d="M315.943,108.548c-.081.151-17.34-8.923-38.544-20.264s-38.337-20.66-38.257-20.81,17.336,8.921,38.548,20.265,38.333,20.659,38.253,20.809" fill="#e0e0e0"/>
        <path id="Path_141" data-name="Path 141" d="M309.882,119.88c-.081.151-17.339-8.923-38.544-20.263S233,78.956,233.081,78.806s17.336,8.921,38.548,20.265,38.333,20.659,38.253,20.809" fill="#e0e0e0"/>
      </g>
    </g>
    <g id="Group_177" data-name="Group 177">
      <g id="Group_176" data-name="Group 176" clip-path="url(#clip-path)">
        <path id="Path_142" data-name="Path 142" d="M577.333,366.486c0,.144-129.251.26-288.653.26-159.457,0-288.68-.116-288.68-.26s129.223-.26,288.68-.26c159.4,0,288.653.116,288.653.26" fill="#d1d1d1"/>
      </g>
    </g>
    <g id="Group_179" data-name="Group 179">
      <g id="Group_178" data-name="Group 178" clip-path="url(#clip-path)">
        <path id="Path_143" data-name="Path 143" d="M31.952,303.859a12.6,12.6,0,0,1,8.785,4.5,22.255,22.255,0,0,1,4.472,9.011c1.692,6.324.652,13.786-1.152,20.079C37.212,335,32.99,327.7,31.081,323.862c-3.017-6.066-4.786-18.862.871-20" fill="#6ec7e6"/>
        <path id="Path_144" data-name="Path 144" d="M53.908,345.112a10.752,10.752,0,0,1-.5-10.786,14.276,14.276,0,0,1,8.6-6.912c1.671-.513,3.609-.729,5.062.242a4.6,4.6,0,0,1,1.77,4.312,9.32,9.32,0,0,1-1.969,4.424c-3.328,4.507-7.377,8.257-12.96,8.72" fill="#6ec7e6"/>
        <path id="Path_145" data-name="Path 145" d="M54.662,366.242a7.615,7.615,0,0,1-.306-1.314c-.183-.937-.42-2.149-.7-3.6a37.733,37.733,0,0,1-.749-12.1A23.1,23.1,0,0,1,57.393,338a15.7,15.7,0,0,1,2.6-2.625,9.273,9.273,0,0,1,.815-.585c.191-.126.3-.186.305-.172a24.47,24.47,0,0,0-3.451,3.586,23.851,23.851,0,0,0-4.286,11.077c-.638,4.667.152,8.937.609,11.983.245,1.53.443,2.77.556,3.631a7.113,7.113,0,0,1,.124,1.344" fill="#263238"/>
        <path id="Path_146" data-name="Path 146" d="M34.16,313.484a2.744,2.744,0,0,1,.276.519c.182.393.416.9.7,1.524.6,1.327,1.455,3.258,2.486,5.652,2.063,4.789,4.819,11.446,7.7,18.864s5.329,14.2,7.035,19.124c.853,2.464,1.527,4.463,1.975,5.851.207.656.375,1.187.506,1.6a2.68,2.68,0,0,1,.146.568,2.771,2.771,0,0,1-.236-.537c-.153-.406-.348-.927-.591-1.572l-2.116-5.8c-1.786-4.9-4.286-11.649-7.161-19.066s-5.582-14.084-7.564-18.9L34.971,315.6c-.255-.64-.462-1.157-.623-1.56a2.7,2.7,0,0,1-.188-.556" fill="#263238"/>
        <path id="Path_147" data-name="Path 147" d="M46.536,352.262a25.155,25.155,0,0,0-19.522-12.129c-2.024-.147-4.458.193-5.36,2.011s.305,3.974,1.683,5.468a21.493,21.493,0,0,0,23.274,5.2" fill="#6ec7e6"/>
        <path id="Path_148" data-name="Path 148" d="M30.095,345.55a6.465,6.465,0,0,1,1.267.047,12.276,12.276,0,0,1,1.478.171c.571.106,1.234.168,1.94.365a22.106,22.106,0,0,1,2.307.641,24.849,24.849,0,0,1,2.571.977,27.981,27.981,0,0,1,5.417,3.212,27.416,27.416,0,0,1,4.478,4.431,23.929,23.929,0,0,1,1.577,2.255,20.324,20.324,0,0,1,1.174,2.088,18.482,18.482,0,0,1,.805,1.8,11.286,11.286,0,0,1,.5,1.4,6.455,6.455,0,0,1,.33,1.224c-.1.035-.588-1.713-1.936-4.273a21.716,21.716,0,0,0-1.207-2.03,24.982,24.982,0,0,0-1.587-2.194,28.492,28.492,0,0,0-4.427-4.329,29.187,29.187,0,0,0-5.307-3.189,26.11,26.11,0,0,0-2.517-1c-.794-.3-1.564-.494-2.261-.687-2.806-.71-4.616-.806-4.605-.909" fill="#263238"/>
      </g>
    </g>
    <g id="Group_184" data-name="Group 184">
      <g id="Group_183" data-name="Group 183" clip-path="url(#clip-path)">
        <path id="Path_149" data-name="Path 149" d="M212.625,161.2,177.264,343l-4.629,23.8L408.7,365.636c10.594-.052,19.983-9.459,23.391-23.435l41.86-171.637c2.587-10.609-3.091-21.644-11.133-21.636l-238.923.251c-5.275.006-9.888,4.928-11.268,12.023" fill="#6ec7e6"/>
        <path id="Path_150" data-name="Path 150" d="M386.054,330.684,361.06,129.276c-1.024-8.252-7.6-14.408-15.359-14.383l-54.807.179a14.936,14.936,0,0,0-10.826,4.8l-26.025,27.665-152.426.795c-9.315.048-16.471,8.862-15.236,18.765l23.205,186.153c1.028,8.24,7.589,14.388,15.34,14.373l265.647-.525c29.587.613,32.411-8.125,32.411-8.125-33.907,7.515-36.927-28.267-36.93-28.29" fill="#bad2db"/>
        <g id="Group_182" data-name="Group 182" opacity="0.5">
          <g id="Group_181" data-name="Group 181">
            <g id="Group_180" data-name="Group 180" clip-path="url(#clip-path-6)">
              <path id="Path_151" data-name="Path 151" d="M271.509,290.375,262.55,300l-69-62.074,8.96-9.623Z" fill="#fff"/>
              <path id="Path_152" data-name="Path 152" d="M258.795,226.167l9.9,8.908-62.435,67.056-9.9-8.908Z" fill="#fff"/>
            </g>
          </g>
        </g>
      </g>
    </g>
  </g>
</svg>
