<svg xmlns="http://www.w3.org/2000/svg" xmlns:xlink="http://www.w3.org/1999/xlink" width="397.98" height="582.311" viewBox="0 0 397.98 582.311">
  <defs>
    <clipPath id="clip-path">
      <rect id="Rectangle_13" data-name="Rectangle 13" width="375.5" height="582.311" fill="none"/>
    </clipPath>
    <clipPath id="clip-path-3">
      <rect id="Rectangle_8" data-name="Rectangle 8" width="29.455" height="39.952" fill="none"/>
    </clipPath>
    <clipPath id="clip-path-4">
      <rect id="Rectangle_9" data-name="Rectangle 9" width="126.059" height="194.305" fill="none"/>
    </clipPath>
    <clipPath id="clip-path-5">
      <rect id="Rectangle_10" data-name="Rectangle 10" width="180.123" height="356.113" fill="none"/>
    </clipPath>
    <clipPath id="clip-path-6">
      <rect id="Rectangle_11" data-name="Rectangle 11" width="67.41" height="114.749" fill="none"/>
    </clipPath>
    <clipPath id="clip-path-7">
      <rect id="Rectangle_17" data-name="Rectangle 17" width="137.039" height="280.097" fill="none"/>
    </clipPath>
    <clipPath id="clip-path-10">
      <rect id="Rectangle_15" data-name="Rectangle 15" width="82.619" height="280.014" fill="none"/>
    </clipPath>
    <clipPath id="clip-path-11">
      <rect id="Rectangle_26" data-name="Rectangle 26" width="54" height="54" fill="none"/>
    </clipPath>
    <clipPath id="clip-path-12">
      <rect id="Rectangle_26-2" data-name="Rectangle 26" width="30" height="30" transform="translate(0 -0.438)" fill="none"/>
    </clipPath>
    <clipPath id="clip-path-13">
      <rect id="Rectangle_26-3" data-name="Rectangle 26" width="34.178" height="34.178" fill="none"/>
    </clipPath>
  </defs>
  <g id="Group_16" data-name="Group 16">
    <g id="Group_15" data-name="Group 15" clip-path="url(#clip-path)">
      <g id="Group_14" data-name="Group 14">
        <g id="Group_13" data-name="Group 13" clip-path="url(#clip-path)">
          <path id="Path_1" data-name="Path 1" d="M208.934,410.685,47.625,144.107a6,6,0,0,1,2.026-8.238L109.68,99.546a6,6,0,0,1,8.238,2.027L279.226,368.149Z" transform="translate(27.36 57.741)" fill="#e7e7eb"/>
          <path id="Path_2" data-name="Path 2" d="M176.706,346.168,52.978,141.7a4.454,4.454,0,0,1,1.506-6.119L104.8,105.132a4.457,4.457,0,0,1,6.119,1.506L234.644,311.109Z" transform="translate(30.622 61.14)" fill="#6ba8f9"/>
          <rect id="Rectangle_2" data-name="Rectangle 2" width="129.454" height="21.301" transform="translate(216.063 480.667) rotate(-31.179)" fill="#e7e7eb"/>
          <rect id="Rectangle_3" data-name="Rectangle 3" width="82.16" height="10.532" transform="translate(299.756 573.303) rotate(-31.183)" fill="#e7e7eb"/>
          <rect id="Rectangle_4" data-name="Rectangle 4" width="43.433" height="101.281" transform="translate(263.888 476.625) rotate(-31.178)" fill="#93b4d3"/>
          <path id="Path_3" data-name="Path 3" d="M53.158,106.733l3.819,30.037,42.161-25.513L74.3,93.938Z" transform="translate(31.105 54.966)" fill="#ececf0"/>
          <line id="Line_1" data-name="Line 1" x1="89.196" y1="147.403" transform="translate(1.356 0.82)" fill="none" stroke="#d3d3d3" stroke-miterlimit="10" stroke-width="2"/>
          <path id="Path_4" data-name="Path 4" d="M51.715,96.11l4.678,17.673,21.144-12.8L64.052,88.644Z" transform="translate(30.26 51.869)" fill="#ececf0"/>
          <rect id="Rectangle_5" data-name="Rectangle 5" width="56.748" height="7.239" transform="translate(205.857 393.583) rotate(-31.177)" fill="#93b4d3"/>
          <rect id="Rectangle_6" data-name="Rectangle 6" width="23.85" height="72.55" transform="translate(223.678 391.261) rotate(-31.179)" fill="#93b4d3"/>
          <rect id="Rectangle_7" data-name="Rectangle 7" width="49.995" height="26.167" transform="translate(195.199 369.447) rotate(-31.177)" fill="#465c5c"/>
          <g id="Group_3" data-name="Group 3" transform="translate(127.082 168.668)" opacity="0.53">
            <g id="Group_2" data-name="Group 2">
              <g id="Group_1" data-name="Group 1" clip-path="url(#clip-path-3)">
                <path id="Path_5" data-name="Path 5" d="M103.943,120.909c6.418,10.608,7.572,21.656,2.577,24.679s-14.247-3.126-20.665-13.734-7.574-21.656-2.579-24.679,14.249,3.126,20.667,13.734" transform="translate(-80.171 -106.406)" fill="#fff"/>
              </g>
            </g>
          </g>
          <g id="Group_6" data-name="Group 6" transform="translate(76.715 192.886)" opacity="0.31">
            <g id="Group_5" data-name="Group 5">
              <g id="Group_4" data-name="Group 4" clip-path="url(#clip-path-4)">
                <line id="Line_2" data-name="Line 2" y1="11.822" x2="19.535" transform="translate(0.344 0.568)" fill="none" stroke="#fff" stroke-miterlimit="10" stroke-width="0.839"/>
                <line id="Line_3" data-name="Line 3" y1="9.462" x2="15.637" transform="translate(4.924 10.497)" fill="none" stroke="#fff" stroke-miterlimit="10" stroke-width="0.419"/>
                <line id="Line_4" data-name="Line 4" y1="9.462" x2="15.637" transform="translate(9.503 18.065)" fill="none" stroke="#fff" stroke-miterlimit="10" stroke-width="0.419"/>
                <line id="Line_5" data-name="Line 5" y1="9.462" x2="15.637" transform="translate(14.082 25.632)" fill="none" stroke="#fff" stroke-miterlimit="10" stroke-width="0.419"/>
                <line id="Line_6" data-name="Line 6" y1="9.462" x2="15.637" transform="translate(18.662 33.201)" fill="none" stroke="#fff" stroke-miterlimit="10" stroke-width="0.419"/>
                <line id="Line_7" data-name="Line 7" y1="11.822" x2="19.537" transform="translate(23.241 38.408)" fill="none" stroke="#fff" stroke-miterlimit="10" stroke-width="0.839"/>
                <line id="Line_8" data-name="Line 8" y1="9.462" x2="15.637" transform="translate(27.821 48.336)" fill="none" stroke="#fff" stroke-miterlimit="10" stroke-width="0.419"/>
                <line id="Line_9" data-name="Line 9" y1="9.462" x2="15.637" transform="translate(32.4 55.904)" fill="none" stroke="#fff" stroke-miterlimit="10" stroke-width="0.419"/>
                <line id="Line_10" data-name="Line 10" y1="9.462" x2="15.637" transform="translate(36.979 63.472)" fill="none" stroke="#fff" stroke-miterlimit="10" stroke-width="0.419"/>
                <line id="Line_11" data-name="Line 11" y1="9.462" x2="15.637" transform="translate(41.559 71.04)" fill="none" stroke="#fff" stroke-miterlimit="10" stroke-width="0.419"/>
                <line id="Line_12" data-name="Line 12" y1="11.822" x2="19.535" transform="translate(46.138 76.248)" fill="none" stroke="#fff" stroke-miterlimit="10" stroke-width="0.839"/>
                <line id="Line_13" data-name="Line 13" y1="9.462" x2="15.637" transform="translate(50.718 86.176)" fill="none" stroke="#fff" stroke-miterlimit="10" stroke-width="0.419"/>
                <line id="Line_14" data-name="Line 14" y1="9.462" x2="15.637" transform="translate(55.297 93.743)" fill="none" stroke="#fff" stroke-miterlimit="10" stroke-width="0.419"/>
                <line id="Line_15" data-name="Line 15" y1="9.462" x2="15.637" transform="translate(59.877 101.311)" fill="none" stroke="#fff" stroke-miterlimit="10" stroke-width="0.419"/>
                <line id="Line_16" data-name="Line 16" y1="9.462" x2="15.637" transform="translate(64.456 108.879)" fill="none" stroke="#fff" stroke-miterlimit="10" stroke-width="0.419"/>
                <line id="Line_17" data-name="Line 17" y1="11.82" x2="19.535" transform="translate(69.035 114.088)" fill="none" stroke="#fff" stroke-miterlimit="10" stroke-width="0.839"/>
                <line id="Line_18" data-name="Line 18" y1="9.462" x2="15.637" transform="translate(73.615 124.015)" fill="none" stroke="#fff" stroke-miterlimit="10" stroke-width="0.419"/>
                <line id="Line_19" data-name="Line 19" y1="9.462" x2="15.637" transform="translate(78.194 131.583)" fill="none" stroke="#fff" stroke-miterlimit="10" stroke-width="0.419"/>
                <line id="Line_20" data-name="Line 20" y1="9.462" x2="15.637" transform="translate(82.773 139.151)" fill="none" stroke="#fff" stroke-miterlimit="10" stroke-width="0.419"/>
                <line id="Line_21" data-name="Line 21" y1="9.462" x2="15.637" transform="translate(87.353 146.719)" fill="none" stroke="#fff" stroke-miterlimit="10" stroke-width="0.419"/>
                <line id="Line_22" data-name="Line 22" y1="11.822" x2="19.535" transform="translate(91.933 151.926)" fill="none" stroke="#fff" stroke-miterlimit="10" stroke-width="0.839"/>
                <line id="Line_23" data-name="Line 23" y1="9.462" x2="15.637" transform="translate(96.512 161.854)" fill="none" stroke="#fff" stroke-miterlimit="10" stroke-width="0.419"/>
                <line id="Line_24" data-name="Line 24" y1="9.462" x2="15.637" transform="translate(101.091 169.423)" fill="none" stroke="#fff" stroke-miterlimit="10" stroke-width="0.419"/>
                <line id="Line_25" data-name="Line 25" y1="9.462" x2="15.637" transform="translate(105.671 176.99)" fill="none" stroke="#fff" stroke-miterlimit="10" stroke-width="0.419"/>
                <line id="Line_26" data-name="Line 26" y1="9.462" x2="15.637" transform="translate(110.25 184.558)" fill="none" stroke="#fff" stroke-miterlimit="10" stroke-width="0.419"/>
              </g>
            </g>
          </g>
          <g id="Group_9" data-name="Group 9" transform="translate(77.251 142.778)" style="mix-blend-mode: multiply;isolation: isolate">
            <g id="Group_8" data-name="Group 8">
              <g id="Group_7" data-name="Group 7" clip-path="url(#clip-path-5)">
                <path id="Path_6" data-name="Path 6" d="M62.055,90.073l-8.6,5.2L56.9,108.293l-1.16.7L59,134.552l-3.315,2.007a14.4,14.4,0,0,0-4.865,19.77L207.777,415.72l-20.231,12.242,11.028,18.224,21.081-12.756-11.028-18.224,20.23-12.242L71.9,143.573a14.182,14.182,0,0,1-2.053-6.876c-.358-10.532-.843-21.066-3.413-31.289-1.3-5.175-2.7-10.313-4.377-15.335" transform="translate(-48.734 -90.073)" fill="#bfd5df"/>
              </g>
            </g>
          </g>
          <g id="Group_12" data-name="Group 12" transform="translate(263.887 467.562)" style="mix-blend-mode: multiply;isolation: isolate">
            <g id="Group_11" data-name="Group 11">
              <g id="Group_10" data-name="Group 10" clip-path="url(#clip-path-6)">
                <path id="Path_7" data-name="Path 7" d="M233.886,381.618l-52.433-86.652-14.976,9.062L218.91,390.68,202.343,400.7l5.451,9.012,21.081-12.757-5.451-9.01Z" transform="translate(-166.476 -294.966)" fill="#bfd5df"/>
              </g>
            </g>
          </g>
        </g>
      </g>
    </g>
  </g>
  <g id="Group_25" data-name="Group 25" transform="translate(0 302.214)">
    <g id="Group_24" data-name="Group 24" clip-path="url(#clip-path-7)">
      <g id="Group_18" data-name="Group 18">
        <g id="Group_17" data-name="Group 17" clip-path="url(#clip-path-7)">
          <path id="Path_9" data-name="Path 9" d="M108.658,42.23a89.467,89.467,0,0,1,3.015-18.223c-36.588-4.385-48.663-4.432-85.284-.345a89.563,89.563,0,0,1,2.868,18.247c.452,8.631-4.5,13.424-12.374,17.943C7.584,65.234,1.095,70.354.861,81.132-.163,128.752-.305,197.289.6,245.772c.348,16.159,13.93,19.2,30.127,20.643a461.91,461.91,0,0,0,74.656.3c16.2-1.316,29.812-4.245,30.292-20.4,1.3-48.477,1.7-117.013,1.06-164.639-.146-10.776-6.594-15.952-15.85-21.407-7.836-4.584-12.75-9.41-12.23-18.041" transform="translate(0 12.016)" fill="#e7e7eb"/>
          <path id="Path_10" data-name="Path 10" d="M112.912,43.98l-99.483-.392a3.436,3.436,0,0,1-3.424-3.451l.144-36.71A3.44,3.44,0,0,1,13.6,0l99.484.392a3.438,3.438,0,0,1,3.424,3.451l-.146,36.712a3.439,3.439,0,0,1-3.451,3.424" transform="translate(5.82 0)" fill="#5692e3"/>
          <path id="Path_11" data-name="Path 11" d="M130.849,189.463q1.257-58.24.762-115.657Q67.292,71.988,2.966,73.3,2.012,130.713,2.8,188.958a712.835,712.835,0,0,0,128.046.5" transform="translate(1.422 42.321)" fill="#6ec7e6"/>
          <path id="Path_12" data-name="Path 12" d="M131.338,151.408Q66.929,153.415,2.529,150.9q-.185-30.167.089-60.11,64.551.365,129.1.508.04,29.944-.381,60.109" transform="translate(1.427 52.816)" fill="#7400b9"/>
          <path id="Path_13" data-name="Path 13" d="M131.678,145.686q-64.57,1.689-129.134-.508-.2-25.93.055-51.667,64.712.349,129.43.509.055,25.738-.351,51.666" transform="translate(1.428 54.398)" fill="#eff6f9"/>
        </g>
      </g>
      <text id="INSULINE" transform="translate(20.409 179.831) rotate(0.225)" fill="#4864a3" font-size="19" font-family="NunitoSans-Black, Nunito Sans" font-weight="800"><tspan x="0" y="0">INSULINE</tspan></text>
      <g id="Group_23" data-name="Group 23">
        <g id="Group_22" data-name="Group 22" clip-path="url(#clip-path-7)">
          <path id="Path_14" data-name="Path 14" d="M82.038,55.566c2.869,4.46,2.57,9.547-.686,11.425s-8.215-.172-11.069-4.634-2.521-9.633.715-11.51,8.171.264,11.04,4.72" transform="translate(39.756 29.182)" fill="#fff"/>
          <g id="Group_21" data-name="Group 21" transform="translate(0 0.028)" style="mix-blend-mode: multiply;isolation: isolate">
            <g id="Group_20" data-name="Group 20">
              <g id="Group_19" data-name="Group 19" clip-path="url(#clip-path-10)">
                <path id="Path_15" data-name="Path 15" d="M59.683,278.535c-16.2-1.447-29.778-4.484-30.127-20.642-.909-48.485-.766-117.023.256-164.642.234-10.776,6.724-15.9,16.024-21.279,7.872-4.521,12.825-9.313,12.374-17.943a88.783,88.783,0,0,0-1.2-10.3l-1.936-.006A10.315,10.315,0,0,1,44.8,33.364l.09-22.959A10.312,10.312,0,0,1,55.25.132L26.3.018A10.314,10.314,0,0,0,15.942,10.291l-.09,22.959A10.314,10.314,0,0,0,26.125,43.606l1.936.006a88.8,88.8,0,0,1,1.2,10.3c.451,8.631-4.5,13.424-12.374,17.945C7.584,77.241,1.094,82.36.86,93.137-.161,140.758-.305,209.295.6,257.779c.35,16.157,13.932,19.2,30.127,20.642a462.117,462.117,0,0,0,51.889,1.427c-7.648-.27-15.292-.663-22.937-1.313" transform="translate(0 -0.018)" fill="#bfd5df"/>
              </g>
            </g>
          </g>
        </g>
      </g>
    </g>
  </g>
  <g id="Group_29" data-name="Group 29" transform="translate(333.217 219.98) rotate(-13)">
    <g id="Group_28" data-name="Group 28" transform="translate(0 0)" clip-path="url(#clip-path-11)">
      <path id="Path_19" data-name="Path 19" d="M17.588,33.4l-5.12,14.485a2.431,2.431,0,0,0,1.484,3.1l8.129,2.873a2.431,2.431,0,0,0,3.1-1.484L30.3,37.9a2.435,2.435,0,0,1,3.1-1.484l14.481,5.12a2.437,2.437,0,0,0,3.1-1.484l2.869-8.129a2.425,2.425,0,0,0-1.48-3.1L37.894,23.7a2.425,2.425,0,0,1-1.48-3.1L41.529,6.113a2.432,2.432,0,0,0-1.48-3.1L31.921.14a2.432,2.432,0,0,0-3.1,1.48L23.7,16.106a2.432,2.432,0,0,1-3.1,1.48L6.116,12.47a2.429,2.429,0,0,0-3.1,1.484L.139,22.078a2.437,2.437,0,0,0,1.484,3.1" transform="translate(0.001 0)" fill="#6ba8f9"/>
    </g>
  </g>
  <g id="Group_30" data-name="Group 30" transform="translate(237.599 181.653)">
    <g id="Group_28-2" data-name="Group 28" transform="translate(16 91)" clip-path="url(#clip-path-12)">
      <path id="Path_19-2" data-name="Path 19" d="M9.628,18.285l-2.8,7.93a1.331,1.331,0,0,0,.812,1.7l4.45,1.573a1.331,1.331,0,0,0,1.7-.812l2.8-7.927a1.333,1.333,0,0,1,1.7-.812l7.927,2.8a1.334,1.334,0,0,0,1.7-.812l1.571-4.45a1.328,1.328,0,0,0-.81-1.7l-7.93-2.8a1.328,1.328,0,0,1-.81-1.7l2.8-7.93a1.331,1.331,0,0,0-.81-1.7L17.475.077a1.331,1.331,0,0,0-1.7.81l-2.8,7.93a1.331,1.331,0,0,1-1.7.81l-7.927-2.8a1.33,1.33,0,0,0-1.7.812L.076,12.087a1.334,1.334,0,0,0,.812,1.7" transform="translate(0.001 0)" fill="#6ba8f9"/>
    </g>
  </g>
  <g id="Group_31" data-name="Group 31" transform="translate(220.324 153.376) rotate(-40)">
    <g id="Group_28-3" data-name="Group 28" transform="translate(0 0)" clip-path="url(#clip-path-13)">
      <path id="Path_19-3" data-name="Path 19" d="M11.132,21.141l-3.24,9.168a1.539,1.539,0,0,0,.939,1.962l5.145,1.818a1.539,1.539,0,0,0,1.962-.939l3.24-9.165a1.541,1.541,0,0,1,1.965-.939l9.165,3.24a1.542,1.542,0,0,0,1.965-.939L34.088,20.2a1.535,1.535,0,0,0-.937-1.962L23.984,15a1.535,1.535,0,0,1-.937-1.962l3.238-9.168A1.539,1.539,0,0,0,25.348,1.9L20.2.089a1.539,1.539,0,0,0-1.965.937L15,10.193a1.539,1.539,0,0,1-1.965.937L3.871,7.892a1.537,1.537,0,0,0-1.965.939L.088,13.974a1.542,1.542,0,0,0,.939,1.965" transform="translate(0.001 0)" fill="#6ba8f9"/>
    </g>
  </g>
</svg>
