<svg xmlns="http://www.w3.org/2000/svg" xmlns:xlink="http://www.w3.org/1999/xlink" width="528.112" height="452.222" viewBox="0 0 528.112 452.222">
  <defs>
    <clipPath id="clip-path">
      <rect id="Rectangle_44" data-name="Rectangle 44" width="227.031" height="352.071" fill="none"/>
    </clipPath>
    <clipPath id="clip-path-3">
      <rect id="Rectangle_39" data-name="Rectangle 39" width="17.808" height="24.155" fill="none"/>
    </clipPath>
    <clipPath id="clip-path-4">
      <rect id="Rectangle_40" data-name="Rectangle 40" width="76.216" height="117.478" fill="none"/>
    </clipPath>
    <clipPath id="clip-path-5">
      <rect id="Rectangle_41" data-name="Rectangle 41" width="108.904" height="215.309" fill="none"/>
    </clipPath>
    <clipPath id="clip-path-6">
      <rect id="Rectangle_42" data-name="Rectangle 42" width="40.756" height="69.378" fill="none"/>
    </clipPath>
    <clipPath id="clip-path-13">
      <rect id="Rectangle_13" data-name="Rectangle 13" width="233.81" height="362.584" fill="none"/>
    </clipPath>
    <clipPath id="clip-path-15">
      <rect id="Rectangle_8" data-name="Rectangle 8" width="18.34" height="24.876" fill="none"/>
    </clipPath>
    <clipPath id="clip-path-16">
      <rect id="Rectangle_9" data-name="Rectangle 9" width="78.492" height="120.986" fill="none"/>
    </clipPath>
    <clipPath id="clip-path-17">
      <rect id="Rectangle_10" data-name="Rectangle 10" width="112.156" height="221.738" fill="none"/>
    </clipPath>
    <clipPath id="clip-path-18">
      <rect id="Rectangle_11" data-name="Rectangle 11" width="41.973" height="71.45" fill="none"/>
    </clipPath>
  </defs>
  <g id="Group_53" data-name="Group 53" transform="matrix(0.643, 0.766, -0.766, 0.643, 382.179, 28)" opacity="0.8" clip-path="url(#clip-path)">
    <g id="Group_52" data-name="Group 52">
      <g id="Group_51" data-name="Group 51" clip-path="url(#clip-path)">
        <path id="Path_47" data-name="Path 47" d="M144.811,287.32,47.282,126.145a3.627,3.627,0,0,1,1.225-4.981L84.8,99.2a3.627,3.627,0,0,1,4.981,1.226L187.31,261.6Z" transform="translate(-1.946 -4.106)" fill="#e7e7eb"/>
        <path id="Path_48" data-name="Path 48" d="M127.53,250.61,52.723,126.984a2.693,2.693,0,0,1,.91-3.7l30.42-18.408a2.7,2.7,0,0,1,3.7.91L162.56,229.413Z" transform="translate(-2.178 -4.348)" fill="#6ba8f9"/>
        <rect id="Rectangle_33" data-name="Rectangle 33" width="78.269" height="12.879" transform="translate(130.633 290.616) rotate(-31.179)" fill="#e7e7eb"/>
        <rect id="Rectangle_34" data-name="Rectangle 34" width="49.675" height="6.368" transform="translate(181.235 346.624) rotate(-31.183)" fill="#e7e7eb"/>
        <rect id="Rectangle_35" data-name="Rectangle 35" width="26.26" height="61.235" transform="translate(159.549 288.171) rotate(-31.178)" fill="#93b4d3"/>
        <path id="Path_49" data-name="Path 49" d="M53.158,101.674l2.309,18.16,25.491-15.425L65.942,93.938Z" transform="translate(-2.212 -3.909)" fill="#ececf0"/>
        <line id="Line_42" data-name="Line 42" x1="53.928" y1="89.121" transform="translate(0.82 0.496)" fill="none" stroke="#d3d3d3" stroke-miterlimit="10" stroke-width="2"/>
        <path id="Path_50" data-name="Path 50" d="M51.715,93.158l2.828,10.685,12.784-7.736-8.153-7.463Z" transform="translate(-2.152 -3.689)" fill="#ececf0"/>
        <rect id="Rectangle_36" data-name="Rectangle 36" width="34.31" height="4.377" transform="translate(124.463 237.964) rotate(-31.177)" fill="#93b4d3"/>
        <rect id="Rectangle_37" data-name="Rectangle 37" width="14.42" height="43.864" transform="translate(135.237 236.56) rotate(-31.179)" fill="#93b4d3"/>
        <rect id="Rectangle_38" data-name="Rectangle 38" width="30.227" height="15.821" transform="translate(118.019 223.371) rotate(-31.177)" fill="#465c5c"/>
        <g id="Group_41" data-name="Group 41" transform="translate(76.835 101.978)" opacity="0.53">
          <g id="Group_40" data-name="Group 40">
            <g id="Group_39" data-name="Group 39" clip-path="url(#clip-path-3)">
              <path id="Path_51" data-name="Path 51" d="M94.544,115.174c3.881,6.414,4.578,13.093,1.558,14.921s-8.614-1.89-12.494-8.3-4.579-13.093-1.559-14.921,8.615,1.89,12.5,8.3" transform="translate(-80.171 -106.406)" fill="#fff"/>
            </g>
          </g>
        </g>
        <g id="Group_44" data-name="Group 44" transform="translate(46.383 116.62)" opacity="0.31">
          <g id="Group_43" data-name="Group 43">
            <g id="Group_42" data-name="Group 42" clip-path="url(#clip-path-4)">
              <line id="Line_43" data-name="Line 43" y1="7.148" x2="11.811" transform="translate(0.208 0.344)" fill="none" stroke="#fff" stroke-miterlimit="10" stroke-width="0.839"/>
              <line id="Line_44" data-name="Line 44" y1="5.721" x2="9.454" transform="translate(2.977 6.346)" fill="none" stroke="#fff" stroke-miterlimit="10" stroke-width="0.419"/>
              <line id="Line_45" data-name="Line 45" y1="5.721" x2="9.454" transform="translate(5.746 10.922)" fill="none" stroke="#fff" stroke-miterlimit="10" stroke-width="0.419"/>
              <line id="Line_46" data-name="Line 46" y1="5.721" x2="9.454" transform="translate(8.514 15.498)" fill="none" stroke="#fff" stroke-miterlimit="10" stroke-width="0.419"/>
              <line id="Line_47" data-name="Line 47" y1="5.721" x2="9.454" transform="translate(11.283 20.073)" fill="none" stroke="#fff" stroke-miterlimit="10" stroke-width="0.419"/>
              <line id="Line_48" data-name="Line 48" y1="7.148" x2="11.812" transform="translate(14.052 23.222)" fill="none" stroke="#fff" stroke-miterlimit="10" stroke-width="0.839"/>
              <line id="Line_49" data-name="Line 49" y1="5.721" x2="9.454" transform="translate(16.821 29.224)" fill="none" stroke="#fff" stroke-miterlimit="10" stroke-width="0.419"/>
              <line id="Line_50" data-name="Line 50" y1="5.721" x2="9.454" transform="translate(19.589 33.8)" fill="none" stroke="#fff" stroke-miterlimit="10" stroke-width="0.419"/>
              <line id="Line_51" data-name="Line 51" y1="5.721" x2="9.454" transform="translate(22.358 38.376)" fill="none" stroke="#fff" stroke-miterlimit="10" stroke-width="0.419"/>
              <line id="Line_52" data-name="Line 52" y1="5.721" x2="9.454" transform="translate(25.127 42.951)" fill="none" stroke="#fff" stroke-miterlimit="10" stroke-width="0.419"/>
              <line id="Line_53" data-name="Line 53" y1="7.148" x2="11.811" transform="translate(27.896 46.1)" fill="none" stroke="#fff" stroke-miterlimit="10" stroke-width="0.839"/>
              <line id="Line_54" data-name="Line 54" y1="5.721" x2="9.454" transform="translate(30.664 52.103)" fill="none" stroke="#fff" stroke-miterlimit="10" stroke-width="0.419"/>
              <line id="Line_55" data-name="Line 55" y1="5.721" x2="9.454" transform="translate(33.433 56.678)" fill="none" stroke="#fff" stroke-miterlimit="10" stroke-width="0.419"/>
              <line id="Line_56" data-name="Line 56" y1="5.721" x2="9.454" transform="translate(36.202 61.254)" fill="none" stroke="#fff" stroke-miterlimit="10" stroke-width="0.419"/>
              <line id="Line_57" data-name="Line 57" y1="5.721" x2="9.454" transform="translate(38.971 65.829)" fill="none" stroke="#fff" stroke-miterlimit="10" stroke-width="0.419"/>
              <line id="Line_58" data-name="Line 58" y1="7.147" x2="11.811" transform="translate(41.739 68.979)" fill="none" stroke="#fff" stroke-miterlimit="10" stroke-width="0.839"/>
              <line id="Line_59" data-name="Line 59" y1="5.721" x2="9.454" transform="translate(44.508 74.981)" fill="none" stroke="#fff" stroke-miterlimit="10" stroke-width="0.419"/>
              <line id="Line_60" data-name="Line 60" y1="5.721" x2="9.454" transform="translate(47.277 79.556)" fill="none" stroke="#fff" stroke-miterlimit="10" stroke-width="0.419"/>
              <line id="Line_61" data-name="Line 61" y1="5.721" x2="9.454" transform="translate(50.046 84.132)" fill="none" stroke="#fff" stroke-miterlimit="10" stroke-width="0.419"/>
              <line id="Line_62" data-name="Line 62" y1="5.721" x2="9.454" transform="translate(52.814 88.707)" fill="none" stroke="#fff" stroke-miterlimit="10" stroke-width="0.419"/>
              <line id="Line_63" data-name="Line 63" y1="7.148" x2="11.811" transform="translate(55.583 91.856)" fill="none" stroke="#fff" stroke-miterlimit="10" stroke-width="0.839"/>
              <line id="Line_64" data-name="Line 64" y1="5.721" x2="9.454" transform="translate(58.352 97.859)" fill="none" stroke="#fff" stroke-miterlimit="10" stroke-width="0.419"/>
              <line id="Line_65" data-name="Line 65" y1="5.721" x2="9.454" transform="translate(61.121 102.434)" fill="none" stroke="#fff" stroke-miterlimit="10" stroke-width="0.419"/>
              <line id="Line_66" data-name="Line 66" y1="5.721" x2="9.454" transform="translate(63.89 107.01)" fill="none" stroke="#fff" stroke-miterlimit="10" stroke-width="0.419"/>
              <line id="Line_67" data-name="Line 67" y1="5.721" x2="9.454" transform="translate(66.658 111.586)" fill="none" stroke="#fff" stroke-miterlimit="10" stroke-width="0.419"/>
            </g>
          </g>
        </g>
        <g id="Group_47" data-name="Group 47" transform="translate(46.706 86.325)" style="mix-blend-mode: multiply;isolation: isolate">
          <g id="Group_46" data-name="Group 46">
            <g id="Group_45" data-name="Group 45" clip-path="url(#clip-path-5)">
              <path id="Path_52" data-name="Path 52" d="M56.788,90.073l-5.2,3.144,2.084,7.871-.7.425,1.966,15.452-2,1.213a8.7,8.7,0,0,0-2.941,11.953l94.9,156.831-12.232,7.4,6.667,11.019,12.746-7.712-6.668-11.019,12.231-7.4L62.739,122.42a8.574,8.574,0,0,1-1.241-4.157c-.217-6.368-.51-12.737-2.063-18.918-.787-3.129-1.631-6.235-2.646-9.271" transform="translate(-48.734 -90.073)" fill="#bfd5df"/>
            </g>
          </g>
        </g>
        <g id="Group_50" data-name="Group 50" transform="translate(159.549 282.692)" style="mix-blend-mode: multiply;isolation: isolate">
          <g id="Group_49" data-name="Group 49">
            <g id="Group_48" data-name="Group 48" clip-path="url(#clip-path-6)">
              <path id="Path_53" data-name="Path 53" d="M207.233,347.356l-31.7-52.39-9.055,5.479,31.7,52.39L188.162,358.9l3.3,5.448,12.746-7.713-3.3-5.448Z" transform="translate(-166.476 -294.966)" fill="#bfd5df"/>
            </g>
          </g>
        </g>
      </g>
    </g>
  </g>
  <g id="Group_68" data-name="Group 68" transform="matrix(0.643, 0.766, -0.766, 0.643, 269.702, 0)" opacity="0.8" clip-path="url(#clip-path)">
    <g id="Group_67" data-name="Group 67">
      <g id="Group_66" data-name="Group 66" clip-path="url(#clip-path)">
        <path id="Path_54" data-name="Path 54" d="M144.811,287.32,47.282,126.145a3.627,3.627,0,0,1,1.225-4.981L84.8,99.2a3.627,3.627,0,0,1,4.981,1.226L187.31,261.6Z" transform="translate(-1.946 -4.106)" fill="#e7e7eb"/>
        <path id="Path_55" data-name="Path 55" d="M127.53,250.61,52.723,126.984a2.693,2.693,0,0,1,.91-3.7l30.42-18.408a2.7,2.7,0,0,1,3.7.91L162.56,229.413Z" transform="translate(-2.178 -4.348)" fill="#6ba8f9"/>
        <rect id="Rectangle_45" data-name="Rectangle 45" width="78.269" height="12.879" transform="translate(130.633 290.616) rotate(-31.179)" fill="#e7e7eb"/>
        <rect id="Rectangle_46" data-name="Rectangle 46" width="49.675" height="6.368" transform="translate(181.235 346.624) rotate(-31.183)" fill="#e7e7eb"/>
        <rect id="Rectangle_47" data-name="Rectangle 47" width="26.26" height="61.235" transform="translate(159.549 288.171) rotate(-31.178)" fill="#93b4d3"/>
        <path id="Path_56" data-name="Path 56" d="M53.158,101.674l2.309,18.16,25.491-15.425L65.942,93.938Z" transform="translate(-2.212 -3.909)" fill="#ececf0"/>
        <line id="Line_68" data-name="Line 68" x1="53.928" y1="89.121" transform="translate(0.82 0.496)" fill="none" stroke="#d3d3d3" stroke-miterlimit="10" stroke-width="2"/>
        <path id="Path_57" data-name="Path 57" d="M51.715,93.158l2.828,10.685,12.784-7.736-8.153-7.463Z" transform="translate(-2.152 -3.689)" fill="#ececf0"/>
        <rect id="Rectangle_48" data-name="Rectangle 48" width="34.31" height="4.377" transform="translate(124.463 237.964) rotate(-31.177)" fill="#93b4d3"/>
        <rect id="Rectangle_49" data-name="Rectangle 49" width="14.42" height="43.864" transform="translate(135.237 236.56) rotate(-31.179)" fill="#93b4d3"/>
        <rect id="Rectangle_50" data-name="Rectangle 50" width="30.227" height="15.821" transform="translate(118.019 223.371) rotate(-31.177)" fill="#465c5c"/>
        <g id="Group_56" data-name="Group 56" transform="translate(76.835 101.978)" opacity="0.53">
          <g id="Group_55" data-name="Group 55">
            <g id="Group_54" data-name="Group 54" clip-path="url(#clip-path-3)">
              <path id="Path_58" data-name="Path 58" d="M94.544,115.174c3.881,6.414,4.578,13.093,1.558,14.921s-8.614-1.89-12.494-8.3-4.579-13.093-1.559-14.921,8.615,1.89,12.5,8.3" transform="translate(-80.171 -106.406)" fill="#fff"/>
            </g>
          </g>
        </g>
        <g id="Group_59" data-name="Group 59" transform="translate(46.383 116.62)" opacity="0.31">
          <g id="Group_58" data-name="Group 58">
            <g id="Group_57" data-name="Group 57" clip-path="url(#clip-path-4)">
              <line id="Line_69" data-name="Line 69" y1="7.148" x2="11.811" transform="translate(0.208 0.344)" fill="none" stroke="#fff" stroke-miterlimit="10" stroke-width="0.839"/>
              <line id="Line_70" data-name="Line 70" y1="5.721" x2="9.454" transform="translate(2.977 6.346)" fill="none" stroke="#fff" stroke-miterlimit="10" stroke-width="0.419"/>
              <line id="Line_71" data-name="Line 71" y1="5.721" x2="9.454" transform="translate(5.746 10.922)" fill="none" stroke="#fff" stroke-miterlimit="10" stroke-width="0.419"/>
              <line id="Line_72" data-name="Line 72" y1="5.721" x2="9.454" transform="translate(8.514 15.498)" fill="none" stroke="#fff" stroke-miterlimit="10" stroke-width="0.419"/>
              <line id="Line_73" data-name="Line 73" y1="5.721" x2="9.454" transform="translate(11.283 20.073)" fill="none" stroke="#fff" stroke-miterlimit="10" stroke-width="0.419"/>
              <line id="Line_74" data-name="Line 74" y1="7.148" x2="11.812" transform="translate(14.052 23.222)" fill="none" stroke="#fff" stroke-miterlimit="10" stroke-width="0.839"/>
              <line id="Line_75" data-name="Line 75" y1="5.721" x2="9.454" transform="translate(16.821 29.224)" fill="none" stroke="#fff" stroke-miterlimit="10" stroke-width="0.419"/>
              <line id="Line_76" data-name="Line 76" y1="5.721" x2="9.454" transform="translate(19.589 33.8)" fill="none" stroke="#fff" stroke-miterlimit="10" stroke-width="0.419"/>
              <line id="Line_77" data-name="Line 77" y1="5.721" x2="9.454" transform="translate(22.358 38.376)" fill="none" stroke="#fff" stroke-miterlimit="10" stroke-width="0.419"/>
              <line id="Line_78" data-name="Line 78" y1="5.721" x2="9.454" transform="translate(25.127 42.951)" fill="none" stroke="#fff" stroke-miterlimit="10" stroke-width="0.419"/>
              <line id="Line_79" data-name="Line 79" y1="7.148" x2="11.811" transform="translate(27.896 46.1)" fill="none" stroke="#fff" stroke-miterlimit="10" stroke-width="0.839"/>
              <line id="Line_80" data-name="Line 80" y1="5.721" x2="9.454" transform="translate(30.664 52.103)" fill="none" stroke="#fff" stroke-miterlimit="10" stroke-width="0.419"/>
              <line id="Line_81" data-name="Line 81" y1="5.721" x2="9.454" transform="translate(33.433 56.678)" fill="none" stroke="#fff" stroke-miterlimit="10" stroke-width="0.419"/>
              <line id="Line_82" data-name="Line 82" y1="5.721" x2="9.454" transform="translate(36.202 61.254)" fill="none" stroke="#fff" stroke-miterlimit="10" stroke-width="0.419"/>
              <line id="Line_83" data-name="Line 83" y1="5.721" x2="9.454" transform="translate(38.971 65.829)" fill="none" stroke="#fff" stroke-miterlimit="10" stroke-width="0.419"/>
              <line id="Line_84" data-name="Line 84" y1="7.147" x2="11.811" transform="translate(41.739 68.979)" fill="none" stroke="#fff" stroke-miterlimit="10" stroke-width="0.839"/>
              <line id="Line_85" data-name="Line 85" y1="5.721" x2="9.454" transform="translate(44.508 74.981)" fill="none" stroke="#fff" stroke-miterlimit="10" stroke-width="0.419"/>
              <line id="Line_86" data-name="Line 86" y1="5.721" x2="9.454" transform="translate(47.277 79.556)" fill="none" stroke="#fff" stroke-miterlimit="10" stroke-width="0.419"/>
              <line id="Line_87" data-name="Line 87" y1="5.721" x2="9.454" transform="translate(50.046 84.132)" fill="none" stroke="#fff" stroke-miterlimit="10" stroke-width="0.419"/>
              <line id="Line_88" data-name="Line 88" y1="5.721" x2="9.454" transform="translate(52.814 88.707)" fill="none" stroke="#fff" stroke-miterlimit="10" stroke-width="0.419"/>
              <line id="Line_89" data-name="Line 89" y1="7.148" x2="11.811" transform="translate(55.583 91.856)" fill="none" stroke="#fff" stroke-miterlimit="10" stroke-width="0.839"/>
              <line id="Line_90" data-name="Line 90" y1="5.721" x2="9.454" transform="translate(58.352 97.859)" fill="none" stroke="#fff" stroke-miterlimit="10" stroke-width="0.419"/>
              <line id="Line_91" data-name="Line 91" y1="5.721" x2="9.454" transform="translate(61.121 102.434)" fill="none" stroke="#fff" stroke-miterlimit="10" stroke-width="0.419"/>
              <line id="Line_92" data-name="Line 92" y1="5.721" x2="9.454" transform="translate(63.89 107.01)" fill="none" stroke="#fff" stroke-miterlimit="10" stroke-width="0.419"/>
              <line id="Line_93" data-name="Line 93" y1="5.721" x2="9.454" transform="translate(66.658 111.586)" fill="none" stroke="#fff" stroke-miterlimit="10" stroke-width="0.419"/>
            </g>
          </g>
        </g>
        <g id="Group_62" data-name="Group 62" transform="translate(46.706 86.325)" style="mix-blend-mode: multiply;isolation: isolate">
          <g id="Group_61" data-name="Group 61">
            <g id="Group_60" data-name="Group 60" clip-path="url(#clip-path-5)">
              <path id="Path_59" data-name="Path 59" d="M56.788,90.073l-5.2,3.144,2.084,7.871-.7.425,1.966,15.452-2,1.213a8.7,8.7,0,0,0-2.941,11.953l94.9,156.831-12.232,7.4,6.667,11.019,12.746-7.712-6.668-11.019,12.231-7.4L62.739,122.42a8.574,8.574,0,0,1-1.241-4.157c-.217-6.368-.51-12.737-2.063-18.918-.787-3.129-1.631-6.235-2.646-9.271" transform="translate(-48.734 -90.073)" fill="#bfd5df"/>
            </g>
          </g>
        </g>
        <g id="Group_65" data-name="Group 65" transform="translate(159.549 282.692)" style="mix-blend-mode: multiply;isolation: isolate">
          <g id="Group_64" data-name="Group 64">
            <g id="Group_63" data-name="Group 63" clip-path="url(#clip-path-6)">
              <path id="Path_60" data-name="Path 60" d="M207.233,347.356l-31.7-52.39-9.055,5.479,31.7,52.39L188.162,358.9l3.3,5.448,12.746-7.713-3.3-5.448Z" transform="translate(-166.476 -294.966)" fill="#bfd5df"/>
            </g>
          </g>
        </g>
      </g>
    </g>
  </g>
  <g id="Group_15" data-name="Group 15" transform="matrix(0.643, 0.766, -0.766, 0.643, 311.875, 40.049)" opacity="0.8" clip-path="url(#clip-path-13)">
    <g id="Group_14" data-name="Group 14">
      <g id="Group_13" data-name="Group 13" clip-path="url(#clip-path-13)">
        <path id="Path_1" data-name="Path 1" d="M147.739,292.953,47.3,126.966a3.735,3.735,0,0,1,1.261-5.129L85.937,99.219a3.736,3.736,0,0,1,5.129,1.262L191.507,266.468Z" transform="translate(-0.608 -1.282)" fill="#e7e7eb"/>
        <path id="Path_2" data-name="Path 2" d="M129.775,254.973,52.735,127.656a2.773,2.773,0,0,1,.938-3.81L85,104.889a2.775,2.775,0,0,1,3.81.938l77.041,127.317Z" transform="translate(-0.68 -1.358)" fill="#6ba8f9"/>
        <rect id="Rectangle_2" data-name="Rectangle 2" width="80.606" height="13.263" transform="translate(134.534 299.293) rotate(-31.179)" fill="#e7e7eb"/>
        <rect id="Rectangle_3" data-name="Rectangle 3" width="51.158" height="6.558" transform="translate(186.647 356.974) rotate(-31.183)" fill="#e7e7eb"/>
        <rect id="Rectangle_4" data-name="Rectangle 4" width="27.044" height="63.064" transform="translate(164.313 296.776) rotate(-31.178)" fill="#93b4d3"/>
        <path id="Path_3" data-name="Path 3" d="M53.158,101.9l2.378,18.7,26.252-15.886L66.323,93.938Z" transform="translate(-0.691 -1.221)" fill="#ececf0"/>
        <line id="Line_1" data-name="Line 1" x1="55.539" y1="91.783" transform="translate(0.844 0.51)" fill="none" stroke="#d3d3d3" stroke-miterlimit="10" stroke-width="2"/>
        <path id="Path_4" data-name="Path 4" d="M51.715,93.292l2.913,11,13.166-7.967-8.4-7.686Z" transform="translate(-0.672 -1.152)" fill="#ececf0"/>
        <rect id="Rectangle_5" data-name="Rectangle 5" width="35.335" height="4.507" transform="translate(128.18 245.069) rotate(-31.177)" fill="#93b4d3"/>
        <rect id="Rectangle_6" data-name="Rectangle 6" width="14.851" height="45.174" transform="translate(139.276 243.623) rotate(-31.179)" fill="#93b4d3"/>
        <rect id="Rectangle_7" data-name="Rectangle 7" width="31.13" height="16.293" transform="translate(121.543 230.041) rotate(-31.177)" fill="#465c5c"/>
        <g id="Group_3" data-name="Group 3" transform="translate(79.129 105.023)" opacity="0.53">
          <g id="Group_2" data-name="Group 2">
            <g id="Group_1" data-name="Group 1" clip-path="url(#clip-path-15)">
              <path id="Path_5" data-name="Path 5" d="M94.973,115.436c4,6.605,4.715,13.484,1.6,15.367s-8.871-1.946-12.868-8.551-4.716-13.484-1.606-15.367,8.872,1.946,12.869,8.551" transform="translate(-80.171 -106.406)" fill="#fff"/>
            </g>
          </g>
        </g>
        <g id="Group_6" data-name="Group 6" transform="translate(47.768 120.103)" opacity="0.31">
          <g id="Group_5" data-name="Group 5">
            <g id="Group_4" data-name="Group 4" clip-path="url(#clip-path-16)">
              <line id="Line_2" data-name="Line 2" y1="7.361" x2="12.164" transform="translate(0.214 0.354)" fill="none" stroke="#fff" stroke-miterlimit="10" stroke-width="0.839"/>
              <line id="Line_3" data-name="Line 3" y1="5.891" x2="9.737" transform="translate(3.066 6.536)" fill="none" stroke="#fff" stroke-miterlimit="10" stroke-width="0.419"/>
              <line id="Line_4" data-name="Line 4" y1="5.891" x2="9.737" transform="translate(5.917 11.248)" fill="none" stroke="#fff" stroke-miterlimit="10" stroke-width="0.419"/>
              <line id="Line_5" data-name="Line 5" y1="5.891" x2="9.737" transform="translate(8.769 15.96)" fill="none" stroke="#fff" stroke-miterlimit="10" stroke-width="0.419"/>
              <line id="Line_6" data-name="Line 6" y1="5.891" x2="9.737" transform="translate(11.62 20.673)" fill="none" stroke="#fff" stroke-miterlimit="10" stroke-width="0.419"/>
              <line id="Line_7" data-name="Line 7" y1="7.361" x2="12.165" transform="translate(14.471 23.915)" fill="none" stroke="#fff" stroke-miterlimit="10" stroke-width="0.839"/>
              <line id="Line_8" data-name="Line 8" y1="5.891" x2="9.737" transform="translate(17.323 30.097)" fill="none" stroke="#fff" stroke-miterlimit="10" stroke-width="0.419"/>
              <line id="Line_9" data-name="Line 9" y1="5.891" x2="9.737" transform="translate(20.174 34.809)" fill="none" stroke="#fff" stroke-miterlimit="10" stroke-width="0.419"/>
              <line id="Line_10" data-name="Line 10" y1="5.891" x2="9.737" transform="translate(23.026 39.522)" fill="none" stroke="#fff" stroke-miterlimit="10" stroke-width="0.419"/>
              <line id="Line_11" data-name="Line 11" y1="5.891" x2="9.737" transform="translate(25.877 44.234)" fill="none" stroke="#fff" stroke-miterlimit="10" stroke-width="0.419"/>
              <line id="Line_12" data-name="Line 12" y1="7.361" x2="12.164" transform="translate(28.729 47.476)" fill="none" stroke="#fff" stroke-miterlimit="10" stroke-width="0.839"/>
              <line id="Line_13" data-name="Line 13" y1="5.891" x2="9.737" transform="translate(31.58 53.658)" fill="none" stroke="#fff" stroke-miterlimit="10" stroke-width="0.419"/>
              <line id="Line_14" data-name="Line 14" y1="5.891" x2="9.737" transform="translate(34.432 58.37)" fill="none" stroke="#fff" stroke-miterlimit="10" stroke-width="0.419"/>
              <line id="Line_15" data-name="Line 15" y1="5.891" x2="9.737" transform="translate(37.283 63.083)" fill="none" stroke="#fff" stroke-miterlimit="10" stroke-width="0.419"/>
              <line id="Line_16" data-name="Line 16" y1="5.891" x2="9.737" transform="translate(40.134 67.795)" fill="none" stroke="#fff" stroke-miterlimit="10" stroke-width="0.419"/>
              <line id="Line_17" data-name="Line 17" y1="7.36" x2="12.164" transform="translate(42.986 71.039)" fill="none" stroke="#fff" stroke-miterlimit="10" stroke-width="0.839"/>
              <line id="Line_18" data-name="Line 18" y1="5.891" x2="9.737" transform="translate(45.837 77.22)" fill="none" stroke="#fff" stroke-miterlimit="10" stroke-width="0.419"/>
              <line id="Line_19" data-name="Line 19" y1="5.891" x2="9.737" transform="translate(48.689 81.932)" fill="none" stroke="#fff" stroke-miterlimit="10" stroke-width="0.419"/>
              <line id="Line_20" data-name="Line 20" y1="5.891" x2="9.737" transform="translate(51.54 86.644)" fill="none" stroke="#fff" stroke-miterlimit="10" stroke-width="0.419"/>
              <line id="Line_21" data-name="Line 21" y1="5.891" x2="9.737" transform="translate(54.392 91.356)" fill="none" stroke="#fff" stroke-miterlimit="10" stroke-width="0.419"/>
              <line id="Line_22" data-name="Line 22" y1="7.361" x2="12.164" transform="translate(57.243 94.599)" fill="none" stroke="#fff" stroke-miterlimit="10" stroke-width="0.839"/>
              <line id="Line_23" data-name="Line 23" y1="5.891" x2="9.737" transform="translate(60.094 100.781)" fill="none" stroke="#fff" stroke-miterlimit="10" stroke-width="0.419"/>
              <line id="Line_24" data-name="Line 24" y1="5.891" x2="9.737" transform="translate(62.946 105.493)" fill="none" stroke="#fff" stroke-miterlimit="10" stroke-width="0.419"/>
              <line id="Line_25" data-name="Line 25" y1="5.891" x2="9.737" transform="translate(65.797 110.205)" fill="none" stroke="#fff" stroke-miterlimit="10" stroke-width="0.419"/>
              <line id="Line_26" data-name="Line 26" y1="5.891" x2="9.737" transform="translate(68.649 114.918)" fill="none" stroke="#fff" stroke-miterlimit="10" stroke-width="0.419"/>
            </g>
          </g>
        </g>
        <g id="Group_9" data-name="Group 9" transform="translate(48.101 88.903)" style="mix-blend-mode: multiply;isolation: isolate">
          <g id="Group_8" data-name="Group 8">
            <g id="Group_7" data-name="Group 7" clip-path="url(#clip-path-17)">
              <path id="Path_6" data-name="Path 6" d="M57.029,90.073l-5.353,3.238,2.146,8.106-.722.437,2.024,15.914-2.064,1.25a8.964,8.964,0,0,0-3.029,12.31l97.733,161.514-12.6,7.623,6.867,11.348,13.126-7.942-6.867-11.348,12.6-7.623L63.157,123.385a8.831,8.831,0,0,1-1.278-4.282c-.223-6.558-.525-13.117-2.125-19.483-.81-3.223-1.68-6.421-2.725-9.548" transform="translate(-48.734 -90.073)" fill="#bfd5df"/>
            </g>
          </g>
        </g>
        <g id="Group_12" data-name="Group 12" transform="translate(164.313 291.134)" style="mix-blend-mode: multiply;isolation: isolate">
          <g id="Group_11" data-name="Group 11">
            <g id="Group_10" data-name="Group 10" clip-path="url(#clip-path-18)">
              <path id="Path_7" data-name="Path 7" d="M208.45,348.921,175.8,294.966l-9.325,5.643,32.648,53.955-10.315,6.242,3.394,5.611,13.126-7.943-3.394-5.61Z" transform="translate(-166.476 -294.966)" fill="#bfd5df"/>
            </g>
          </g>
        </g>
      </g>
    </g>
  </g>
</svg>
