<svg xmlns="http://www.w3.org/2000/svg" xmlns:xlink="http://www.w3.org/1999/xlink" width="286.336" height="368.467" viewBox="0 0 286.336 368.467">
  <defs>
    <clipPath id="clip-path">
      <rect id="Rectangle_32" data-name="Rectangle 32" width="286.336" height="368.467" fill="none"/>
    </clipPath>
    <clipPath id="clip-path-3">
      <rect id="Rectangle_27" data-name="Rectangle 27" width="215.115" height="11.904" transform="translate(5.096 332.994)" fill="none"/>
    </clipPath>
  </defs>
  <g id="Group_38" data-name="Group 38" opacity="0.8">
    <g id="Group_37" data-name="Group 37" clip-path="url(#clip-path)">
      <g id="Group_36" data-name="Group 36">
        <g id="Group_35" data-name="Group 35" clip-path="url(#clip-path)">
          <g id="Group_34" data-name="Group 34" opacity="0.21" style="mix-blend-mode: multiply;isolation: isolate">
            <g id="Group_33" data-name="Group 33">
              <g id="Group_32" data-name="Group 32" clip-path="url(#clip-path-3)">
                <path id="Path_21" data-name="Path 21" d="M220.211,338.946c0,3.287-48.156,5.952-107.558,5.952S5.1,342.233,5.1,338.946s48.155-5.952,107.557-5.952,107.558,2.665,107.558,5.952" fill="#4d8cc6"/>
              </g>
            </g>
          </g>
          <path id="Path_22" data-name="Path 22" d="M211.631,338.946H11.473A11.473,11.473,0,0,1,0,327.473V46.418A11.473,11.473,0,0,1,11.473,34.946H211.631A11.473,11.473,0,0,1,223.1,46.418V327.473a11.473,11.473,0,0,1-11.473,11.473" fill="#3b0f56"/>
          <path id="Path_23" data-name="Path 23" d="M208.689,329.885a771,771,0,0,0-193.274,0V70.026a770.994,770.994,0,0,1,193.274,0Z" fill="#412262"/>
          <rect id="Rectangle_28" data-name="Rectangle 28" width="200.617" height="269.733" transform="translate(11.744 52.08)" fill="#f2f3f6"/>
          <path id="Path_24" data-name="Path 24" d="M212.361,294.158l-21.9,27.655h-5.759Z" fill="#d8e0f5"/>
          <path id="Path_25" data-name="Path 25" d="M152.335,30.682H71.77A30.682,30.682,0,0,1,102.451,0h19.2a30.683,30.683,0,0,1,30.682,30.682" fill="#de9922"/>
          <path id="Path_26" data-name="Path 26" d="M104.44,10.419a7.611,7.611,0,1,0,7.612-7.612,7.612,7.612,0,0,0-7.612,7.612" fill="#d67919"/>
          <path id="Path_27" data-name="Path 27" d="M106.747,10.419a5.306,5.306,0,1,0,5.305-5.3,5.3,5.3,0,0,0-5.305,5.3" fill="#fff"/>
          <path id="Path_28" data-name="Path 28" d="M171.552,63.946h-119V33.885A11.939,11.939,0,0,1,64.491,21.946h95.122a11.939,11.939,0,0,1,11.939,11.939Z" fill="#e4b729"/>
          <rect id="Rectangle_29" data-name="Rectangle 29" width="119" height="11.866" transform="translate(52.552 52.079)" fill="#ebda62"/>
          <path id="Path_29" data-name="Path 29" d="M32.032,118.753a15.278,15.278,0,1,0,15.277-15.277A15.277,15.277,0,0,0,32.032,118.753Z" fill="none" stroke="#d1d1d1" stroke-linecap="round" stroke-linejoin="round" stroke-width="4"/>
          <path id="Path_30" data-name="Path 30" d="M43.473,127.146a1.72,1.72,0,0,1-1.219-.505l-4.808-4.807a1.725,1.725,0,0,1,2.439-2.439l3.588,3.587,9.868-9.867a1.725,1.725,0,0,1,2.439,2.439L44.693,126.641a1.724,1.724,0,0,1-1.22.505" fill="#0ba1d5"/>
          <line id="Line_28" data-name="Line 28" x2="111.967" transform="translate(81.186 103.475)" fill="none" stroke="#d1d1d1" stroke-linecap="round" stroke-linejoin="round" stroke-width="4"/>
          <line id="Line_29" data-name="Line 29" x2="111.967" transform="translate(81.186 116.198)" fill="none" stroke="#d1d1d1" stroke-linecap="round" stroke-linejoin="round" stroke-width="4"/>
          <line id="Line_30" data-name="Line 30" x2="111.967" transform="translate(81.186 128.921)" fill="none" stroke="#d1d1d1" stroke-linecap="round" stroke-linejoin="round" stroke-width="4"/>
          <path id="Path_31" data-name="Path 31" d="M32.032,171.669a15.278,15.278,0,1,0,15.277-15.277A15.277,15.277,0,0,0,32.032,171.669Z" fill="none" stroke="#d1d1d1" stroke-linecap="round" stroke-linejoin="round" stroke-width="4"/>
          <path id="Path_32" data-name="Path 32" d="M43.473,180.062a1.716,1.716,0,0,1-1.219-.5l-4.808-4.807a1.725,1.725,0,1,1,2.439-2.439l3.588,3.587,9.868-9.867a1.725,1.725,0,0,1,2.439,2.439L44.693,179.557a1.72,1.72,0,0,1-1.22.5" fill="#0ba1d5"/>
          <line id="Line_31" data-name="Line 31" x2="111.967" transform="translate(81.186 156.392)" fill="none" stroke="#d1d1d1" stroke-linecap="round" stroke-linejoin="round" stroke-width="4"/>
          <line id="Line_32" data-name="Line 32" x2="111.967" transform="translate(81.186 169.114)" fill="none" stroke="#d1d1d1" stroke-linecap="round" stroke-linejoin="round" stroke-width="4"/>
          <line id="Line_33" data-name="Line 33" x2="111.967" transform="translate(81.186 181.837)" fill="none" stroke="#d1d1d1" stroke-linecap="round" stroke-linejoin="round" stroke-width="4"/>
          <path id="Path_33" data-name="Path 33" d="M32.032,224.585a15.278,15.278,0,1,0,15.277-15.277A15.277,15.277,0,0,0,32.032,224.585Z" fill="none" stroke="#d1d1d1" stroke-linecap="round" stroke-linejoin="round" stroke-width="4"/>
          <line id="Line_34" data-name="Line 34" x2="111.967" transform="translate(81.186 209.308)" fill="none" stroke="#d1d1d1" stroke-linecap="round" stroke-linejoin="round" stroke-width="4"/>
          <line id="Line_35" data-name="Line 35" x2="111.967" transform="translate(81.186 222.03)" fill="none" stroke="#d1d1d1" stroke-linecap="round" stroke-linejoin="round" stroke-width="4"/>
          <line id="Line_36" data-name="Line 36" x2="111.967" transform="translate(81.186 234.753)" fill="none" stroke="#d1d1d1" stroke-linecap="round" stroke-linejoin="round" stroke-width="4"/>
          <path id="Path_34" data-name="Path 34" d="M32.032,277.5a15.278,15.278,0,1,0,15.277-15.277A15.277,15.277,0,0,0,32.032,277.5Z" fill="none" stroke="#d1d1d1" stroke-linecap="round" stroke-linejoin="round" stroke-width="4"/>
          <line id="Line_37" data-name="Line 37" x2="111.967" transform="translate(81.186 262.224)" fill="none" stroke="#d1d1d1" stroke-linecap="round" stroke-linejoin="round" stroke-width="4"/>
          <line id="Line_38" data-name="Line 38" x2="111.967" transform="translate(81.186 274.947)" fill="none" stroke="#d1d1d1" stroke-linecap="round" stroke-linejoin="round" stroke-width="4"/>
          <line id="Line_39" data-name="Line 39" x2="111.967" transform="translate(81.186 287.669)" fill="none" stroke="#d1d1d1" stroke-linecap="round" stroke-linejoin="round" stroke-width="4"/>
          <path id="Path_35" data-name="Path 35" d="M83.967,80.148H36.941a3,3,0,0,1,0-6H83.967a3,3,0,0,1,0,6" fill="#4e2e77"/>
          <line id="Line_40" data-name="Line 40" x2="29.352" transform="translate(36.941 87.382)" fill="none" stroke="#0ba1d5" stroke-linecap="round" stroke-linejoin="round" stroke-width="4"/>
          <path id="Path_36" data-name="Path 36" d="M184.706,294.158h27.655l-27.655,27.655Z" fill="#fff"/>
          <path id="Path_37" data-name="Path 37" d="M136.722,358.04l.382-7.461,25.676-4.747" fill="#0f1a4b"/>
          <path id="Path_38" data-name="Path 38" d="M181.58,350.578s-10.863,8.486-44.858,7.461" fill="#0f1a4b"/>
          <path id="Path_39" data-name="Path 39" d="M225.935,314.741s3.9-1.75,5.4-1.831c0,0,7.517-1.566,8.7-1.729,0,0,1.07,1.469-.9,2.512a23.64,23.64,0,0,1-4.692,1.692,18.254,18.254,0,0,0,5.283,1c2.136-.092,6.358-.153,7.345.743s-.225,1.575-.225,1.575-6.484.088-7.874.119c-1.22.026-.891.537-.891.537s7.388,1.589,8.71,1.876,1.661,1.128,1.016,2.176c0,0-3.947-.822-6.415-1.114-.86-.1-3.713-.977-3.773,0,0,0,6.19,2.019,7.274,2.235a1.075,1.075,0,0,1,.509,2l-8.6-2.093s-.628-.034-.511.384a20.892,20.892,0,0,0,4.04,2.723c.435.138,1.761.685,1.163,1.7,0,0-.252.316-1.5-.179s-7.252-2.643-7.252-2.643a19.574,19.574,0,0,1-7.592-4.189c-3.525-3.2-3.01-5.035-2.645-2.343l1.479-2.127Z" fill="#f4d4b6"/>
          <path id="Path_40" data-name="Path 40" d="M225.04,322.3l2.046-8.217-4.254-1.287L220.589,321Z" fill="#94f8ff"/>
          <path id="Path_41" data-name="Path 41" d="M258.107,341.786l25.971-20.172A3.666,3.666,0,0,0,283,315.243l-31.172-10.475-15.368,21.65Z" fill="#f1c965"/>
          <path id="Path_42" data-name="Path 42" d="M249.505,304.6c6.631-1.125,13.454,6.5,15.24,17.023s-2.141,19.972-8.771,21.1-13.454-6.5-15.24-17.023,2.141-19.972,8.771-21.1" fill="#0ba1d5"/>
          <rect id="Rectangle_30" data-name="Rectangle 30" width="153.926" height="38.665" transform="matrix(0.986, -0.167, 0.167, 0.986, 97.748, 330.347)" fill="#0ba1d5"/>
          <path id="Path_43" data-name="Path 43" d="M88.977,351.444c-1.786-10.527,2.141-19.972,8.771-21.1s13.454,6.5,15.24,17.022-2.14,19.973-8.771,21.1" fill="#0ba1d5"/>
          <path id="Path_44" data-name="Path 44" d="M103.7,365.422c-5.571.945-11.3-5.458-12.805-14.3s1.8-16.781,7.37-17.726,11.3,5.458,12.805,14.3-1.8,16.782-7.37,17.727" fill="#f1c965"/>
          <path id="Path_45" data-name="Path 45" d="M100.384,355.274c-1.949.331-3.955-1.91-4.481-5s.63-5.871,2.579-6.2,3.955,1.91,4.481,5-.63,5.872-2.579,6.2" fill="#0ba1d5"/>
          <path id="Path_46" data-name="Path 46" d="M275.2,328.512l9.721-7.041a3.666,3.666,0,0,0-1.081-6.371l-11.722-3.514a19.184,19.184,0,0,1,3.082,16.926" fill="#0ba1d5"/>
        </g>
      </g>
    </g>
  </g>
</svg>
